<svg width="50" height="50" viewBox="0 0 50 50" fill="none" xmlns="http://www.w3.org/2000/svg">
<path opacity="0.5" d="M45.8346 20.8333H4.16797V39.5833C4.16797 41.2409 4.82645 42.8306 5.99855 44.0027C7.17065 45.1748 8.76037 45.8333 10.418 45.8333H39.5846C41.2422 45.8333 42.832 45.1748 44.0041 44.0027C45.1762 42.8306 45.8346 41.2409 45.8346 39.5833V20.8333ZM14.5846 16.6667C14.0321 16.6667 13.5022 16.4472 13.1115 16.0565C12.7208 15.6658 12.5013 15.1359 12.5013 14.5833V6.24999C12.5013 5.69746 12.7208 5.16755 13.1115 4.77685C13.5022 4.38615 14.0321 4.16666 14.5846 4.16666C15.1372 4.16666 15.6671 4.38615 16.0578 4.77685C16.4485 5.16755 16.668 5.69746 16.668 6.24999V14.5833C16.668 15.1359 16.4485 15.6658 16.0578 16.0565C15.6671 16.4472 15.1372 16.6667 14.5846 16.6667ZM35.418 16.6667C34.8654 16.6667 34.3355 16.4472 33.9448 16.0565C33.5541 15.6658 33.3346 15.1359 33.3346 14.5833V6.24999C33.3346 5.69746 33.5541 5.16755 33.9448 4.77685C34.3355 4.38615 34.8654 4.16666 35.418 4.16666C35.9705 4.16666 36.5004 4.38615 36.8911 4.77685C37.2818 5.16755 37.5013 5.69746 37.5013 6.24999V14.5833C37.5013 15.1359 37.2818 15.6658 36.8911 16.0565C36.5004 16.4472 35.9705 16.6667 35.418 16.6667Z" fill="#2A72DE"/>
<path d="M39.5846 8.33334H37.5013V14.5833C37.5013 15.1359 37.2818 15.6658 36.8911 16.0565C36.5004 16.4472 35.9705 16.6667 35.418 16.6667C34.8654 16.6667 34.3355 16.4472 33.9448 16.0565C33.5541 15.6658 33.3346 15.1359 33.3346 14.5833V8.33334H16.668V14.5833C16.668 15.1359 16.4485 15.6658 16.0578 16.0565C15.6671 16.4472 15.1372 16.6667 14.5846 16.6667C14.0321 16.6667 13.5022 16.4472 13.1115 16.0565C12.7208 15.6658 12.5013 15.1359 12.5013 14.5833V8.33334H10.418C8.76037 8.33334 7.17065 8.99182 5.99855 10.1639C4.82645 11.336 4.16797 12.9257 4.16797 14.5833V20.8333H45.8346V14.5833C45.8346 12.9257 45.1762 11.336 44.0041 10.1639C42.832 8.99182 41.2422 8.33334 39.5846 8.33334Z" fill="#AFC8EE"/>
</svg>
