<svg width="71" height="72" viewBox="0 0 71 72" fill="none" xmlns="http://www.w3.org/2000/svg">
<g filter="url(#filter0_d_6997_25259)">
<path d="M61.1551 32.5304H67.9977C67.9977 14.9792 54.747 1.74225 37.1719 1.74225V8.58482C51.0691 8.58482 61.1551 18.6537 61.1551 32.5304Z" fill="#2A72DE" fill-opacity="0.35"/>
<path d="M37.2169 22.2714C44.4125 22.2714 47.4817 25.3406 47.4817 32.5362H54.3249C54.3249 21.5016 48.2516 15.4283 37.2169 15.4283V22.2714ZM48.9256 40.8952C48.2681 40.2976 47.4042 39.9789 46.5161 40.0064C45.6281 40.0338 44.7855 40.4053 44.1662 41.0423L35.9783 49.4628C34.0075 49.0865 30.0452 47.8513 25.9667 43.783C21.8882 39.701 20.653 35.7286 20.2869 33.7714L28.7006 25.5801C29.3384 24.9613 29.7104 24.1185 29.7379 23.2302C29.7653 22.3419 29.4461 21.4778 28.8477 20.8207L16.2049 6.91875C15.6063 6.2596 14.7743 5.85978 13.8856 5.80419C12.9969 5.74861 12.1216 6.04165 11.4455 6.62107L4.0206 12.9887C3.42904 13.5824 3.07596 14.3725 3.02834 15.2093C2.97701 16.0647 1.99844 36.3274 17.7104 52.0462C31.4173 65.7496 48.5869 66.7522 53.3155 66.7522C54.0067 66.7522 54.4309 66.7316 54.5439 66.7248C55.3805 66.678 56.1702 66.3233 56.7611 65.7291L63.1252 58.3008C63.7051 57.6252 63.9987 56.7501 63.9437 55.8614C63.8888 54.9727 63.4896 54.1405 62.831 53.5414L48.9256 40.8952Z" fill="#2A72DE" fill-opacity="0.35"/>
</g>
<defs>
<filter id="filter0_d_6997_25259" x="0" y="0.742249" width="70.9961" height="71.0099" filterUnits="userSpaceOnUse" color-interpolation-filters="sRGB">
<feFlood flood-opacity="0" result="BackgroundImageFix"/>
<feColorMatrix in="SourceAlpha" type="matrix" values="0 0 0 0 0 0 0 0 0 0 0 0 0 0 0 0 0 0 127 0" result="hardAlpha"/>
<feOffset dy="2"/>
<feGaussianBlur stdDeviation="1.5"/>
<feComposite in2="hardAlpha" operator="out"/>
<feColorMatrix type="matrix" values="0 0 0 0 0 0 0 0 0 0 0 0 0 0 0 0 0 0 0.25 0"/>
<feBlend mode="normal" in2="BackgroundImageFix" result="effect1_dropShadow_6997_25259"/>
<feBlend mode="normal" in="SourceGraphic" in2="effect1_dropShadow_6997_25259" result="shape"/>
</filter>
</defs>
</svg>
