<svg width="50" height="50" viewBox="0 0 50 50" fill="none" xmlns="http://www.w3.org/2000/svg">
<path fill-rule="evenodd" clip-rule="evenodd" d="M33.3307 18.75C33.3307 20.9602 32.4528 23.0798 30.89 24.6426C29.3271 26.2054 27.2075 27.0834 24.9974 27.0834C22.7873 27.0834 20.6676 26.2054 19.1048 24.6426C17.542 23.0798 16.6641 20.9602 16.6641 18.75C16.6641 16.5399 17.542 14.4203 19.1048 12.8575C20.6676 11.2947 22.7873 10.4167 24.9974 10.4167C27.2075 10.4167 29.3271 11.2947 30.89 12.8575C32.4528 14.4203 33.3307 16.5399 33.3307 18.75ZM29.1641 18.75C29.1641 19.8551 28.7251 20.9149 27.9437 21.6963C27.1623 22.4777 26.1025 22.9167 24.9974 22.9167C23.8923 22.9167 22.8325 22.4777 22.0511 21.6963C21.2697 20.9149 20.8307 19.8551 20.8307 18.75C20.8307 17.645 21.2697 16.5851 22.0511 15.8037C22.8325 15.0223 23.8923 14.5834 24.9974 14.5834C26.1025 14.5834 27.1623 15.0223 27.9437 15.8037C28.7251 16.5851 29.1641 17.645 29.1641 18.75Z" fill="#AFC8EE"/>
<path fill-rule="evenodd" clip-rule="evenodd" d="M24.9987 2.08334C12.3424 2.08334 2.08203 12.3438 2.08203 25C2.08203 37.6563 12.3424 47.9167 24.9987 47.9167C37.6549 47.9167 47.9154 37.6563 47.9154 25C47.9154 12.3438 37.6549 2.08334 24.9987 2.08334ZM6.2487 25C6.2487 29.3542 7.73412 33.3625 10.2237 36.5458C11.9721 34.2498 14.2277 32.3891 16.8142 31.109C19.4007 29.8289 22.2482 29.1642 25.1341 29.1667C27.9827 29.164 30.7944 29.8115 33.3548 31.06C35.9153 32.3084 38.157 34.1249 39.9091 36.3708C41.7142 34.0034 42.9296 31.24 43.4547 28.3096C43.9799 25.3791 43.7996 22.3657 42.9289 19.5187C42.0582 16.6717 40.5221 14.073 38.4476 11.9376C36.3732 9.80215 33.8201 8.19138 30.9995 7.23857C28.1789 6.28576 25.172 6.01828 22.2276 6.45829C19.2831 6.89829 16.4858 8.03312 14.067 9.76887C11.6482 11.5046 9.67747 13.7914 8.31793 16.44C6.95838 19.0886 6.24907 22.0229 6.2487 25ZM24.9987 43.75C20.6944 43.7565 16.5201 42.2757 13.182 39.5583C14.5256 37.6349 16.314 36.0644 18.3949 34.9806C20.4759 33.8968 22.7878 33.3317 25.1341 33.3333C27.4511 33.3315 29.7351 33.8825 31.7965 34.9405C33.8578 35.9985 35.637 37.533 36.9862 39.4167C33.6222 42.2223 29.3791 43.7562 24.9987 43.75Z" fill="#AFC8EE"/>
</svg>
