<svg width="72" height="88" viewBox="0 0 72 88" fill="none" xmlns="http://www.w3.org/2000/svg">
<g filter="url(#filter0_di_7025_25558)">
<path d="M52.9687 10.3672H62.25C63.2446 10.3672 64.1984 10.7623 64.9017 11.4655C65.6049 12.1688 66 13.1226 66 14.1172V75.9922C66 76.9867 65.6049 77.9406 64.9017 78.6438C64.1984 79.3471 63.2446 79.7422 62.25 79.7422H9.75C8.75544 79.7422 7.80161 79.3471 7.09835 78.6438C6.39509 77.9406 6 76.9867 6 75.9922V14.1172C6 13.1226 6.39509 12.1688 7.09835 11.4655C7.80161 10.7623 8.75544 10.3672 9.75 10.3672H22.875V15.9922H49.125V10.3672H52.9687Z" stroke="#2A72DE" stroke-width="6" stroke-linejoin="round"/>
<g filter="url(#filter1_b_7025_25558)">
<path d="M41.625 32.8672L26.625 47.8691H45.3825L30.375 62.8691M22.875 4.74219H49.125V15.9922H22.875V4.74219Z" stroke="#2A72DE" stroke-width="6" stroke-linecap="round" stroke-linejoin="round"/>
</g>
</g>
<defs>
<filter id="filter0_di_7025_25558" x="0" y="-0.257812" width="72" height="88" filterUnits="userSpaceOnUse" color-interpolation-filters="sRGB">
<feFlood flood-opacity="0" result="BackgroundImageFix"/>
<feColorMatrix in="SourceAlpha" type="matrix" values="0 0 0 0 0 0 0 0 0 0 0 0 0 0 0 0 0 0 127 0" result="hardAlpha"/>
<feOffset dy="2"/>
<feGaussianBlur stdDeviation="1.5"/>
<feComposite in2="hardAlpha" operator="out"/>
<feColorMatrix type="matrix" values="0 0 0 0 0.964706 0 0 0 0 0.964706 0 0 0 0 0.964706 0 0 0 1 0"/>
<feBlend mode="normal" in2="BackgroundImageFix" result="effect1_dropShadow_7025_25558"/>
<feBlend mode="normal" in="SourceGraphic" in2="effect1_dropShadow_7025_25558" result="shape"/>
<feColorMatrix in="SourceAlpha" type="matrix" values="0 0 0 0 0 0 0 0 0 0 0 0 0 0 0 0 0 0 127 0" result="hardAlpha"/>
<feOffset dx="1" dy="-2"/>
<feGaussianBlur stdDeviation="1"/>
<feComposite in2="hardAlpha" operator="arithmetic" k2="-1" k3="1"/>
<feColorMatrix type="matrix" values="0 0 0 0 0 0 0 0 0 0 0 0 0 0 0 0 0 0 0.25 0"/>
<feBlend mode="normal" in2="shape" result="effect2_innerShadow_7025_25558"/>
</filter>
<filter id="filter1_b_7025_25558" x="-80.125" y="-98.2578" width="232.25" height="264.127" filterUnits="userSpaceOnUse" color-interpolation-filters="sRGB">
<feFlood flood-opacity="0" result="BackgroundImageFix"/>
<feGaussianBlur in="BackgroundImageFix" stdDeviation="50"/>
<feComposite in2="SourceAlpha" operator="in" result="effect1_backgroundBlur_7025_25558"/>
<feBlend mode="normal" in="SourceGraphic" in2="effect1_backgroundBlur_7025_25558" result="shape"/>
</filter>
</defs>
</svg>
