<svg width="71" height="72" viewBox="0 0 71 72" fill="none" xmlns="http://www.w3.org/2000/svg">
<g filter="url(#filter0_di_7012_25176)">
<path d="M35.5 12.6151C35.5 11.1887 35.219 9.77618 34.6732 8.45831C34.1273 7.14044 33.3272 5.94299 32.3185 4.93433C31.3099 3.92568 30.1124 3.12557 28.7945 2.57969C27.4767 2.03381 26.0642 1.75285 24.6377 1.75285H14.002C12.5639 1.73435 11.1365 2.00162 9.80248 2.53915C8.46849 3.07669 7.25454 3.87378 6.23105 4.88419C5.20756 5.89459 4.39491 7.09819 3.84026 8.42515C3.28561 9.75211 3 11.176 3 12.6142C3 14.0524 3.28561 15.4763 3.84026 16.8033C4.39491 18.1302 5.20756 19.3338 6.23105 20.3442C7.25454 21.3546 8.46849 22.1517 9.80248 22.6893C11.1365 23.2268 12.5639 23.4941 14.002 23.4756H16.0838V28.7197C16.0838 28.7197 35.5 26.0986 35.5 12.6151ZM25.6121 41.3043C25.6121 45.2774 22.3941 48.4955 18.421 48.4955C14.4479 48.4955 11.2298 45.2774 11.2298 41.3043C11.2298 37.3312 14.4479 34.1131 18.421 34.1131C22.3941 34.1131 25.6121 37.3312 25.6121 41.3043ZM18.421 52.091C13.3206 52.091 3.13974 54.6619 3.13974 59.7622V66.4734H33.7022V59.7622C33.7022 54.6601 23.5213 52.091 18.421 52.091ZM52.579 48.4955C56.5522 48.4955 59.7702 45.2774 59.7702 41.3043C59.7702 37.3312 56.5522 34.1131 52.579 34.1131C48.6059 34.1131 45.3879 37.3312 45.3879 41.3043C45.3879 45.2774 48.6059 48.4955 52.579 48.4955ZM52.579 52.091C47.4787 52.091 37.2978 54.6619 37.2978 59.7622V66.4734H67.8603V59.7622C67.8603 54.6601 57.6794 52.091 52.579 52.091ZM49.9578 3.55064C47.077 3.55064 44.3141 4.69506 42.2771 6.73213C40.24 8.7692 39.0956 11.5321 39.0956 14.4129C39.0956 27.8963 56.3544 30.5175 56.3544 30.5175V25.2734H56.998C58.4361 25.2919 59.8635 25.0246 61.1975 24.4871C62.5315 23.9495 63.7455 23.1524 64.769 22.142C65.7924 21.1316 66.6051 19.928 67.1597 18.6011C67.7144 17.2741 68 15.8502 68 14.412C68 12.9738 67.7144 11.5499 67.1597 10.2229C66.6051 8.89599 65.7924 7.69239 64.769 6.68198C63.7455 5.67157 62.5315 4.87448 61.1975 4.33695C59.8635 3.79941 58.4361 3.53214 56.998 3.55064H49.9578Z" fill="#2A72DE"/>
</g>
<defs>
<filter id="filter0_di_7012_25176" x="0" y="-0.248047" width="71" height="71.7212" filterUnits="userSpaceOnUse" color-interpolation-filters="sRGB">
<feFlood flood-opacity="0" result="BackgroundImageFix"/>
<feColorMatrix in="SourceAlpha" type="matrix" values="0 0 0 0 0 0 0 0 0 0 0 0 0 0 0 0 0 0 127 0" result="hardAlpha"/>
<feOffset dy="2"/>
<feGaussianBlur stdDeviation="1.5"/>
<feComposite in2="hardAlpha" operator="out"/>
<feColorMatrix type="matrix" values="0 0 0 0 0 0 0 0 0 0 0 0 0 0 0 0 0 0 0.25 0"/>
<feBlend mode="normal" in2="BackgroundImageFix" result="effect1_dropShadow_7012_25176"/>
<feBlend mode="normal" in="SourceGraphic" in2="effect1_dropShadow_7012_25176" result="shape"/>
<feColorMatrix in="SourceAlpha" type="matrix" values="0 0 0 0 0 0 0 0 0 0 0 0 0 0 0 0 0 0 127 0" result="hardAlpha"/>
<feOffset dx="1" dy="-2"/>
<feGaussianBlur stdDeviation="1"/>
<feComposite in2="hardAlpha" operator="arithmetic" k2="-1" k3="1"/>
<feColorMatrix type="matrix" values="0 0 0 0 0 0 0 0 0 0 0 0 0 0 0 0 0 0 0.25 0"/>
<feBlend mode="normal" in2="shape" result="effect2_innerShadow_7012_25176"/>
</filter>
</defs>
</svg>
