<svg width="71" height="72" viewBox="0 0 71 72" fill="none" xmlns="http://www.w3.org/2000/svg">
<g filter="url(#filter0_d_6997_25258)">
<path d="M35.5 12.6154C35.5 11.1889 35.219 9.77642 34.6732 8.45855C34.1273 7.14068 33.3272 5.94323 32.3185 4.93458C31.3099 3.92593 30.1124 3.12582 28.7945 2.57994C27.4767 2.03406 26.0642 1.7531 24.6377 1.7531H14.002C12.5639 1.73459 11.1365 2.00186 9.80248 2.5394C8.46849 3.07693 7.25454 3.87403 6.23105 4.88443C5.20756 5.89484 4.39491 7.09844 3.84026 8.4254C3.28561 9.75235 3 11.1762 3 12.6145C3 14.0527 3.28561 15.4766 3.84026 16.8035C4.39491 18.1305 5.20756 19.3341 6.23105 20.3445C7.25454 21.3549 8.46849 22.152 9.80248 22.6895C11.1365 23.2271 12.5639 23.4943 14.002 23.4758H16.0838V28.72C16.0838 28.72 35.5 26.0988 35.5 12.6154ZM25.6121 41.3045C25.6121 45.2776 22.3941 48.4957 18.421 48.4957C14.4479 48.4957 11.2298 45.2776 11.2298 41.3045C11.2298 37.3314 14.4479 34.1134 18.421 34.1134C22.3941 34.1134 25.6121 37.3314 25.6121 41.3045ZM18.421 52.0913C13.3206 52.0913 3.13974 54.6621 3.13974 59.7625V66.4736H33.7022V59.7625C33.7022 54.6603 23.5213 52.0913 18.421 52.0913ZM52.579 48.4957C56.5522 48.4957 59.7702 45.2776 59.7702 41.3045C59.7702 37.3314 56.5522 34.1134 52.579 34.1134C48.6059 34.1134 45.3879 37.3314 45.3879 41.3045C45.3879 45.2776 48.6059 48.4957 52.579 48.4957ZM52.579 52.0913C47.4787 52.0913 37.2978 54.6621 37.2978 59.7625V66.4736H67.8603V59.7625C67.8603 54.6603 57.6794 52.0913 52.579 52.0913ZM49.9578 3.55089C47.077 3.55089 44.3141 4.6953 42.2771 6.73237C40.24 8.76944 39.0956 11.5323 39.0956 14.4131C39.0956 27.8966 56.3544 30.5178 56.3544 30.5178V25.2736H56.998C58.4361 25.2921 59.8635 25.0248 61.1975 24.4873C62.5315 23.9498 63.7455 23.1527 64.769 22.1423C65.7924 21.1319 66.6051 19.9283 67.1597 18.6013C67.7144 17.2744 68 15.8505 68 14.4123C68 12.974 67.7144 11.5501 67.1597 10.2232C66.6051 8.89623 65.7924 7.69263 64.769 6.68222C63.7455 5.67182 62.5315 4.87472 61.1975 4.33719C59.8635 3.79966 58.4361 3.53239 56.998 3.55089H49.9578Z" fill="#2A72DE" fill-opacity="0.35" shape-rendering="crispEdges"/>
</g>
<defs>
<filter id="filter0_d_6997_25258" x="0" y="0.752197" width="71" height="70.7214" filterUnits="userSpaceOnUse" color-interpolation-filters="sRGB">
<feFlood flood-opacity="0" result="BackgroundImageFix"/>
<feColorMatrix in="SourceAlpha" type="matrix" values="0 0 0 0 0 0 0 0 0 0 0 0 0 0 0 0 0 0 127 0" result="hardAlpha"/>
<feOffset dy="2"/>
<feGaussianBlur stdDeviation="1.5"/>
<feComposite in2="hardAlpha" operator="out"/>
<feColorMatrix type="matrix" values="0 0 0 0 0 0 0 0 0 0 0 0 0 0 0 0 0 0 0.25 0"/>
<feBlend mode="normal" in2="BackgroundImageFix" result="effect1_dropShadow_6997_25258"/>
<feBlend mode="normal" in="SourceGraphic" in2="effect1_dropShadow_6997_25258" result="shape"/>
</filter>
</defs>
</svg>
